<svg
  width="14"
  height="14"
  viewBox="0 0 14 14"
  fill="none"
  xmlns="http://www.w3.org/2000/svg"
>
  <path
    fill-rule="evenodd"
    clip-rule="evenodd"
    d="M8.10763 3.14975C8.27849 2.97889 8.5555 2.97889 8.72635 3.14975L12.2672 6.69058C12.3492 6.77263 12.3953 6.88391 12.3953 6.99994C12.3953 7.11597 12.3492 7.22725 12.2672 7.3093L8.72635 10.8501C8.5555 11.021 8.27849 11.021 8.10763 10.8501C7.93678 10.6793 7.93678 10.4023 8.10763 10.2314L11.3391 6.99994L8.10763 3.76847C7.93678 3.59761 7.93678 3.3206 8.10763 3.14975Z"
    fill="white"
  />
  <path
    fill-rule="evenodd"
    clip-rule="evenodd"
    d="M1.60352 7C1.60352 6.75838 1.79939 6.5625 2.04102 6.5625L11.8585 6.5625C12.1001 6.5625 12.296 6.75837 12.296 7C12.296 7.24162 12.1001 7.4375 11.8585 7.4375L2.04102 7.4375C1.79939 7.4375 1.60352 7.24162 1.60352 7Z"
    fill="white"
  />
</svg>
