<svg
  width="196"
  height="40"
  viewBox="0 0 196 40"
  fill="none"
  xmlns="http://www.w3.org/2000/svg"
>
  <path
    d="M2.5 35H37.5V37.5H2.5V35ZM33.75 13.75C34.0815 13.75 34.3995 13.6183 34.6339 13.3839C34.8683 13.1495 35 12.8315 35 12.5V8.75C34.9999 8.49311 34.9206 8.24249 34.773 8.03225C34.6254 7.822 34.4166 7.66235 34.175 7.575L20.425 2.575C20.1504 2.47571 19.8496 2.47571 19.575 2.575L5.825 7.575C5.58341 7.66235 5.3746 7.822 5.22698 8.03225C5.07937 8.24249 5.00011 8.49311 5 8.75V12.5C5 12.8315 5.1317 13.1495 5.36612 13.3839C5.60054 13.6183 5.91848 13.75 6.25 13.75H7.5V30H5V32.5H35V30H32.5V13.75H33.75ZM7.5 9.625L20 5.075L32.5 9.625V11.25H7.5V9.625ZM22.5 30H17.5V13.75H22.5V30ZM10 13.75H15V30H10V13.75ZM30 30H25V13.75H30V30Z"
    fill="#F8F8F8"
  />
  <path
    d="M63.592 28L60.072 21.884H58.158V28H55.65V12.71H60.93C62.1033 12.71 63.0933 12.9153 63.9 13.326C64.7213 13.7367 65.33 14.2867 65.726 14.976C66.1367 15.6653 66.342 16.4353 66.342 17.286C66.342 18.2833 66.0487 19.1927 65.462 20.014C64.89 20.8207 64.0027 21.3707 62.8 21.664L66.584 28H63.592ZM58.158 19.882H60.93C61.8687 19.882 62.5727 19.6473 63.042 19.178C63.526 18.7087 63.768 18.078 63.768 17.286C63.768 16.494 63.5333 15.878 63.064 15.438C62.5947 14.9833 61.8833 14.756 60.93 14.756H58.158V19.882ZM71.3264 14.272C70.8717 14.272 70.4904 14.118 70.1824 13.81C69.8744 13.502 69.7204 13.1207 69.7204 12.666C69.7204 12.2113 69.8744 11.83 70.1824 11.522C70.4904 11.214 70.8717 11.06 71.3264 11.06C71.7664 11.06 72.1404 11.214 72.4484 11.522C72.7564 11.83 72.9104 12.2113 72.9104 12.666C72.9104 13.1207 72.7564 13.502 72.4484 13.81C72.1404 14.118 71.7664 14.272 71.3264 14.272ZM72.5584 15.878V28H70.0504V15.878H72.5584ZM80.7512 28.198C79.7978 28.198 78.9398 28.0293 78.1772 27.692C77.4292 27.34 76.8352 26.8707 76.3952 26.284C75.9552 25.6827 75.7205 25.0153 75.6912 24.282H78.2872C78.3312 24.7953 78.5732 25.228 79.0132 25.58C79.4678 25.9173 80.0325 26.086 80.7072 26.086C81.4112 26.086 81.9538 25.954 82.3352 25.69C82.7312 25.4113 82.9292 25.0593 82.9292 24.634C82.9292 24.1793 82.7092 23.842 82.2692 23.622C81.8438 23.402 81.1618 23.16 80.2232 22.896C79.3138 22.6467 78.5732 22.4047 78.0012 22.17C77.4292 21.9353 76.9305 21.576 76.5052 21.092C76.0945 20.608 75.8892 19.97 75.8892 19.178C75.8892 18.5327 76.0798 17.946 76.4612 17.418C76.8425 16.8753 77.3852 16.45 78.0892 16.142C78.8078 15.834 79.6292 15.68 80.5532 15.68C81.9318 15.68 83.0392 16.032 83.8752 16.736C84.7258 17.4253 85.1805 18.3713 85.2392 19.574H82.7312C82.6872 19.0313 82.4672 18.5987 82.0712 18.276C81.6752 17.9533 81.1398 17.792 80.4652 17.792C79.8052 17.792 79.2992 17.9167 78.9472 18.166C78.5952 18.4153 78.4192 18.7453 78.4192 19.156C78.4192 19.4787 78.5365 19.75 78.7712 19.97C79.0058 20.19 79.2918 20.366 79.6292 20.498C79.9665 20.6153 80.4652 20.7693 81.1252 20.96C82.0052 21.1947 82.7238 21.4367 83.2812 21.686C83.8532 21.9207 84.3445 22.2727 84.7552 22.742C85.1658 23.2113 85.3785 23.8347 85.3932 24.612C85.3932 25.3013 85.2025 25.9173 84.8212 26.46C84.4398 27.0027 83.8972 27.428 83.1932 27.736C82.5038 28.044 81.6898 28.198 80.7512 28.198ZM99.7131 21.642C99.7131 22.0967 99.6838 22.5073 99.6251 22.874H90.3631C90.4365 23.842 90.7958 24.6193 91.4411 25.206C92.0865 25.7927 92.8785 26.086 93.8171 26.086C95.1665 26.086 96.1198 25.5213 96.6771 24.392H99.3831C99.0165 25.5067 98.3491 26.4233 97.3811 27.142C96.4278 27.846 95.2398 28.198 93.8171 28.198C92.6585 28.198 91.6171 27.9413 90.6931 27.428C89.7838 26.9 89.0651 26.1667 88.5371 25.228C88.0238 24.2747 87.7671 23.1747 87.7671 21.928C87.7671 20.6813 88.0165 19.5887 88.5151 18.65C89.0285 17.6967 89.7398 16.9633 90.6491 16.45C91.5731 15.9367 92.6291 15.68 93.8171 15.68C94.9611 15.68 95.9805 15.9293 96.8751 16.428C97.7698 16.9267 98.4665 17.6307 98.9651 18.54C99.4638 19.4347 99.7131 20.4687 99.7131 21.642ZM97.0951 20.85C97.0805 19.926 96.7505 19.1853 96.1051 18.628C95.4598 18.0707 94.6605 17.792 93.7071 17.792C92.8418 17.792 92.1011 18.0707 91.4851 18.628C90.8691 19.1707 90.5025 19.9113 90.3851 20.85H97.0951ZM112.449 12.556V15.57H106.157V18.826H110.865V21.752H106.157V28H102.395V12.556H112.449ZM116.819 14.448C116.159 14.448 115.616 14.2573 115.191 13.876C114.78 13.48 114.575 12.996 114.575 12.424C114.575 11.8373 114.78 11.3533 115.191 10.972C115.616 10.576 116.159 10.378 116.819 10.378C117.464 10.378 117.992 10.576 118.403 10.972C118.828 11.3533 119.041 11.8373 119.041 12.424C119.041 12.996 118.828 13.48 118.403 13.876C117.992 14.2573 117.464 14.448 116.819 14.448ZM118.689 15.724V28H114.927V15.724H118.689ZM129.395 15.592C130.832 15.592 131.976 16.0613 132.827 17C133.692 17.924 134.125 19.2 134.125 20.828V28H130.385V21.334C130.385 20.5127 130.172 19.8747 129.747 19.42C129.321 18.9653 128.749 18.738 128.031 18.738C127.312 18.738 126.74 18.9653 126.315 19.42C125.889 19.8747 125.677 20.5127 125.677 21.334V28H121.915V15.724H125.677V17.352C126.058 16.8093 126.571 16.384 127.217 16.076C127.862 15.7533 128.588 15.592 129.395 15.592ZM136.491 21.84C136.491 20.5787 136.726 19.4713 137.195 18.518C137.679 17.5647 138.332 16.8313 139.153 16.318C139.974 15.8047 140.891 15.548 141.903 15.548C142.768 15.548 143.524 15.724 144.169 16.076C144.829 16.428 145.335 16.89 145.687 17.462V15.724H149.449V28H145.687V26.262C145.32 26.834 144.807 27.296 144.147 27.648C143.502 28 142.746 28.176 141.881 28.176C140.884 28.176 139.974 27.9193 139.153 27.406C138.332 26.878 137.679 26.1373 137.195 25.184C136.726 24.216 136.491 23.1013 136.491 21.84ZM145.687 21.862C145.687 20.9233 145.423 20.1827 144.895 19.64C144.382 19.0973 143.751 18.826 143.003 18.826C142.255 18.826 141.617 19.0973 141.089 19.64C140.576 20.168 140.319 20.9013 140.319 21.84C140.319 22.7787 140.576 23.5267 141.089 24.084C141.617 24.6267 142.255 24.898 143.003 24.898C143.751 24.898 144.382 24.6267 144.895 24.084C145.423 23.5413 145.687 22.8007 145.687 21.862ZM160.151 15.592C161.588 15.592 162.732 16.0613 163.583 17C164.448 17.924 164.881 19.2 164.881 20.828V28H161.141V21.334C161.141 20.5127 160.928 19.8747 160.503 19.42C160.077 18.9653 159.505 18.738 158.787 18.738C158.068 18.738 157.496 18.9653 157.071 19.42C156.645 19.8747 156.433 20.5127 156.433 21.334V28H152.671V15.724H156.433V17.352C156.814 16.8093 157.327 16.384 157.973 16.076C158.618 15.7533 159.344 15.592 160.151 15.592ZM167.247 21.862C167.247 20.586 167.504 19.4713 168.017 18.518C168.545 17.5647 169.271 16.8313 170.195 16.318C171.134 15.8047 172.204 15.548 173.407 15.548C174.947 15.548 176.23 15.9513 177.257 16.758C178.298 17.5647 178.98 18.7013 179.303 20.168H175.299C174.962 19.2293 174.309 18.76 173.341 18.76C172.652 18.76 172.102 19.0313 171.691 19.574C171.28 20.102 171.075 20.8647 171.075 21.862C171.075 22.8593 171.28 23.6293 171.691 24.172C172.102 24.7 172.652 24.964 173.341 24.964C174.309 24.964 174.962 24.4947 175.299 23.556H179.303C178.98 24.9933 178.298 26.1227 177.257 26.944C176.216 27.7653 174.932 28.176 173.407 28.176C172.204 28.176 171.134 27.9193 170.195 27.406C169.271 26.8927 168.545 26.1593 168.017 25.206C167.504 24.2527 167.247 23.138 167.247 21.862ZM193.387 21.664C193.387 22.016 193.365 22.3827 193.321 22.764H184.807C184.866 23.5267 185.108 24.1133 185.533 24.524C185.973 24.92 186.509 25.118 187.139 25.118C188.078 25.118 188.731 24.722 189.097 23.93H193.101C192.896 24.7367 192.522 25.4627 191.979 26.108C191.451 26.7533 190.784 27.2593 189.977 27.626C189.171 27.9927 188.269 28.176 187.271 28.176C186.069 28.176 184.998 27.9193 184.059 27.406C183.121 26.8927 182.387 26.1593 181.859 25.206C181.331 24.2527 181.067 23.138 181.067 21.862C181.067 20.586 181.324 19.4713 181.837 18.518C182.365 17.5647 183.099 16.8313 184.037 16.318C184.976 15.8047 186.054 15.548 187.271 15.548C188.459 15.548 189.515 15.7973 190.439 16.296C191.363 16.7947 192.082 17.506 192.595 18.43C193.123 19.354 193.387 20.432 193.387 21.664ZM189.537 20.674C189.537 20.0287 189.317 19.5153 188.877 19.134C188.437 18.7527 187.887 18.562 187.227 18.562C186.597 18.562 186.061 18.7453 185.621 19.112C185.196 19.4787 184.932 19.9993 184.829 20.674H189.537Z"
    fill="white"
  />
</svg>
